<?xml version="1.0" encoding="UTF-8"?>
<svg width="24px" height="24px" viewBox="0 0 24 24" version="1.1" xmlns="http://www.w3.org/2000/svg" xmlns:xlink="http://www.w3.org/1999/xlink">
    <!-- Generator: Sketch 43.1 (39012) - http://www.bohemiancoding.com/sketch -->
    <title>身份图标/讲师</title>
    <desc>Created with Sketch.</desc>
    <defs>
        <path d="M22.4587931,8.60177124 C24.3356061,14.3779642 21.1745407,20.5819796 15.3983512,22.4587937 C9.62203073,24.3356079 3.41801901,21.1745405 1.54120594,15.3982167 C-0.335607126,9.62202377 2.82545837,3.41800837 8.60177881,1.54119419 C14.3779683,-0.335619993 20.58198,2.82557833 22.4587931,8.60177124 Z" id="path-1"></path>
    </defs>
    <g id="全局公共部分" stroke="none" stroke-width="1" fill="none" fill-rule="evenodd">
        <g id="身份图标/讲师">
            <g id="Path">
                <use fill="#F01414" fill-rule="evenodd" xlink:href="#path-1"></use>
                <path stroke-opacity="0.4" stroke="#FFFFFF" stroke-width="1.5" d="M21.7455012,8.83353558 C23.4943159,14.2157929 20.5488314,19.9966893 15.1665866,21.7455019 C9.78419442,23.4943229 4.00330939,20.5488222 2.25449936,15.1664571 C0.505676055,9.7841732 3.45118921,4.00329455 8.83353864,2.25448752 C14.2157637,0.505681249 19.9966787,3.45125413 21.7455012,8.83353558 Z"></path>
            </g>
            <path d="M12.2251612,20.3855959 C12.7487622,20.0664028 16.1540278,17.8556816 16.1992727,14.3319387 C16.2367082,11.418003 14.8180025,9.9067847 14.4800914,9.58858139 C14.4409205,9.55171335 14.3798089,9.55356912 14.3420016,9.5920455 L14.2107295,9.72553748 C14.1777565,9.7589414 14.1726742,9.81016075 14.1985815,9.84925572 C14.2656431,9.95045724 14.3836516,10.1642424 14.4018736,10.4369174 C14.4280288,10.8298465 14.0728875,11.2742424 13.643619,11.2214147 C12.9794491,11.139637 12.5460899,10.4766309 12.943873,8.05868164 C13.2686444,6.0838911 11.8418813,3.96187585 11.6162768,3.64144561 C11.597683,3.61509363 11.567809,3.6 11.5355797,3.6 L11.3391054,3.6 C11.2787376,3.6 11.2322531,3.65282769 11.2408063,3.71221244 C11.2862991,4.02893114 11.3929034,4.95483844 11.2142791,5.71149919 C10.5739092,8.42587737 7.275,10.0694742 7.275,14.0301899 C7.275,16.9509301 9.23800779,18.6571283 9.63740227,18.9740945 C9.67706901,19.0055189 9.73384203,19.0014362 9.76929418,18.9654342 L9.89833505,18.8342929 C9.93477886,18.7970537 9.9367622,18.7386587 9.9020538,18.6998111 C9.63219601,18.3979386 8.57594511,17.1199292 8.56230967,15.5959679 C8.54322005,13.4414148 9.89387254,12.0398109 9.89387254,12.0398109 L10.1503428,12.3003615 C10.1503428,12.3003615 9.20441502,14.7783141 11.5746267,15.4241233 C12.6133994,15.7071906 13.5290813,14.896465 13.5323042,14.8933721 C13.7533224,15.4566612 13.8988497,16.2303951 13.8413329,16.8789261 C13.6901035,18.5794333 12.3368479,19.8059759 11.9849295,20.0981984 C11.9404284,20.1351902 11.9377013,20.2017506 11.9782358,20.2430725 L12.1033099,20.3701311 C12.1356631,20.4030401 12.1857424,20.4095972 12.2251612,20.3855959 Z" id="Fill-1" fill="#FFFFFF"></path>
        </g>
    </g>
</svg>